<?xml version="1.0" encoding="UTF-8" standalone="no"?><svg xmlns="http://www.w3.org/2000/svg" xmlns:xlink="http://www.w3.org/1999/xlink" contentScriptType="application/ecmascript" contentStyleType="text/css" height="459px" preserveAspectRatio="none" style="width:343px;height:459px;" version="1.1" viewBox="0 0 343 459" width="343px" zoomAndPan="magnify"><defs><filter height="300%" id="f1k1gqtophlhx3" width="300%" x="-1" y="-1"><feGaussianBlur result="blurOut" stdDeviation="2.0"/><feColorMatrix in="blurOut" result="blurOut2" type="matrix" values="0 0 0 0 0 0 0 0 0 0 0 0 0 0 0 0 0 0 .4 0"/><feOffset dx="4.0" dy="4.0" in="blurOut2" result="blurOut3"/><feBlend in="SourceGraphic" in2="blurOut3" mode="normal"/></filter></defs><g><!--class Shape--><rect fill="#FEFECE" filter="url(#f1k1gqtophlhx3)" height="203.4609" id="Shape" style="stroke: #A80036; stroke-width: 1.5;" width="326" x="6" y="8"/><ellipse cx="147.25" cy="24" fill="#ADD1B2" rx="11" ry="11" style="stroke: #A80036; stroke-width: 1.0;"/><path d="M150.2231,29.6431 Q149.6421,29.9419 149.0029,30.0913 Q148.3638,30.2407 147.6582,30.2407 Q145.1514,30.2407 143.8315,28.5889 Q142.5117,26.937 142.5117,23.8159 Q142.5117,20.6865 143.8315,19.0347 Q145.1514,17.3828 147.6582,17.3828 Q148.3638,17.3828 149.0112,17.5322 Q149.6587,17.6816 150.2231,17.9805 L150.2231,20.7031 Q149.5923,20.1221 148.9988,19.8523 Q148.4053,19.5825 147.7744,19.5825 Q146.4297,19.5825 145.7449,20.6492 Q145.0601,21.7158 145.0601,23.8159 Q145.0601,25.9077 145.7449,26.9744 Q146.4297,28.041 147.7744,28.041 Q148.4053,28.041 148.9988,27.7712 Q149.5923,27.5015 150.2231,26.9204 Z "/><text fill="#000000" font-family="sans-serif" font-size="12" lengthAdjust="spacingAndGlyphs" textLength="35" x="167.75" y="28.5352">Shape</text><line style="stroke: #A80036; stroke-width: 1.5;" x1="7" x2="331" y1="40" y2="40"/><rect fill="none" height="6" style="stroke: #C82930; stroke-width: 1.0;" width="6" x="14" y="48.9775"/><text fill="#000000" font-family="sans-serif" font-size="11" lengthAdjust="spacingAndGlyphs" textLength="24" x="26" y="54.6348">int x</text><rect fill="none" height="6" style="stroke: #C82930; stroke-width: 1.0;" width="6" x="14" y="61.9326"/><text fill="#000000" font-family="sans-serif" font-size="11" lengthAdjust="spacingAndGlyphs" textLength="23" x="26" y="67.5898">int y</text><line style="stroke: #A80036; stroke-width: 1.5;" x1="7" x2="331" y1="73.9102" y2="73.9102"/><ellipse cx="17" cy="85.8877" fill="#84BE84" rx="3" ry="3" style="stroke: #038048; stroke-width: 1.0;"/><text fill="#000000" font-family="sans-serif" font-size="11" lengthAdjust="spacingAndGlyphs" textLength="293" x="26" y="88.5449">friend bool operator == (const Shape&amp;, const Shape&amp;)</text><ellipse cx="17" cy="98.8428" fill="#84BE84" rx="3" ry="3" style="stroke: #038048; stroke-width: 1.0;"/><text fill="#000000" font-family="sans-serif" font-size="11" lengthAdjust="spacingAndGlyphs" textLength="259" x="26" y="101.5">friend istream&amp; operator &gt;&gt; (istream&amp;, Shape&amp;)</text><ellipse cx="17" cy="111.7979" fill="#84BE84" rx="3" ry="3" style="stroke: #038048; stroke-width: 1.0;"/><text fill="#000000" font-family="sans-serif" font-size="11" lengthAdjust="spacingAndGlyphs" textLength="300" x="26" y="114.4551">friend ostream&amp; operator &lt;&lt; (ostream&amp;, const Shape&amp;)</text><polygon fill="#FFFF44" points="17,119.7529,21,123.7529,17,127.7529,13,123.7529" style="stroke: #B38D22; stroke-width: 1.0;"/><text fill="#000000" font-family="sans-serif" font-size="11" lengthAdjust="spacingAndGlyphs" textLength="216" x="26" y="127.4102">virtual bool equals (const Shape&amp;) const</text><polygon fill="#FFFF44" points="17,132.708,21,136.708,17,140.708,13,136.708" style="stroke: #B38D22; stroke-width: 1.0;"/><text fill="#000000" font-family="sans-serif" font-size="11" lengthAdjust="spacingAndGlyphs" textLength="171" x="26" y="140.3652">virtual istream&amp; read (istream&amp;)</text><polygon fill="#FFFF44" points="17,145.6631,21,149.6631,17,153.6631,13,149.6631" style="stroke: #B38D22; stroke-width: 1.0;"/><text fill="#000000" font-family="sans-serif" font-size="11" lengthAdjust="spacingAndGlyphs" textLength="214" x="26" y="153.3203">virtual ostream&amp; write const (ostream&amp;)</text><ellipse cx="17" cy="163.6182" fill="#84BE84" rx="3" ry="3" style="stroke: #038048; stroke-width: 1.0;"/><text fill="#000000" font-family="sans-serif" font-size="11" lengthAdjust="spacingAndGlyphs" textLength="96" x="26" y="166.2754">Shape (int x, int y)</text><ellipse cx="17" cy="176.5732" fill="#84BE84" rx="3" ry="3" style="stroke: #038048; stroke-width: 1.0;"/><text fill="#000000" font-family="sans-serif" font-size="11" lengthAdjust="spacingAndGlyphs" textLength="87" x="26" y="179.2305">virtual ~Shape ()</text><ellipse cx="17" cy="189.5283" fill="#84BE84" rx="3" ry="3" style="stroke: #038048; stroke-width: 1.0;"/><text fill="#000000" font-family="sans-serif" font-size="11" lengthAdjust="spacingAndGlyphs" textLength="144" x="26" y="192.1855">virtual double area () const</text><ellipse cx="17" cy="202.4834" fill="#84BE84" rx="3" ry="3" style="stroke: #038048; stroke-width: 1.0;"/><text fill="#000000" font-family="sans-serif" font-size="11" lengthAdjust="spacingAndGlyphs" textLength="119" x="26" y="205.1406">void move (int x, int y)</text><!--class Circle--><rect fill="#FEFECE" filter="url(#f1k1gqtophlhx3)" height="177.5508" id="Circle" style="stroke: #A80036; stroke-width: 1.5;" width="325" x="6.5" y="271"/><ellipse cx="148.75" cy="287" fill="#ADD1B2" rx="11" ry="11" style="stroke: #A80036; stroke-width: 1.0;"/><path d="M151.7231,292.6431 Q151.1421,292.9419 150.5029,293.0913 Q149.8638,293.2407 149.1582,293.2407 Q146.6514,293.2407 145.3315,291.5889 Q144.0117,289.937 144.0117,286.8159 Q144.0117,283.6865 145.3315,282.0347 Q146.6514,280.3828 149.1582,280.3828 Q149.8638,280.3828 150.5112,280.5322 Q151.1587,280.6816 151.7231,280.9805 L151.7231,283.7031 Q151.0923,283.1221 150.4988,282.8523 Q149.9053,282.5825 149.2744,282.5825 Q147.9297,282.5825 147.2449,283.6492 Q146.5601,284.7158 146.5601,286.8159 Q146.5601,288.9077 147.2449,289.9744 Q147.9297,291.041 149.2744,291.041 Q149.9053,291.041 150.4988,290.7712 Q151.0923,290.5015 151.7231,289.9204 Z "/><text fill="#000000" font-family="sans-serif" font-size="12" lengthAdjust="spacingAndGlyphs" textLength="32" x="169.25" y="291.5352">Circle</text><line style="stroke: #A80036; stroke-width: 1.5;" x1="7.5" x2="330.5" y1="303" y2="303"/><rect fill="none" height="6" style="stroke: #C82930; stroke-width: 1.0;" width="6" x="14.5" y="311.9775"/><text fill="#000000" font-family="sans-serif" font-size="11" lengthAdjust="spacingAndGlyphs" textLength="22" x="26.5" y="317.6348">int r</text><line style="stroke: #A80036; stroke-width: 1.5;" x1="7.5" x2="330.5" y1="323.9551" y2="323.9551"/><ellipse cx="17.5" cy="335.9326" fill="#84BE84" rx="3" ry="3" style="stroke: #038048; stroke-width: 1.0;"/><text fill="#000000" font-family="sans-serif" font-size="11" lengthAdjust="spacingAndGlyphs" textLength="291" x="26.5" y="338.5898">friend bool operator == (const Circle&amp;, const Circle&amp;)</text><ellipse cx="17.5" cy="348.8877" fill="#84BE84" rx="3" ry="3" style="stroke: #038048; stroke-width: 1.0;"/><text fill="#000000" font-family="sans-serif" font-size="11" lengthAdjust="spacingAndGlyphs" textLength="258" x="26.5" y="351.5449">friend istream&amp; operator &gt;&gt; (istream&amp;, Circle&amp;)</text><ellipse cx="17.5" cy="361.8428" fill="#84BE84" rx="3" ry="3" style="stroke: #038048; stroke-width: 1.0;"/><text fill="#000000" font-family="sans-serif" font-size="11" lengthAdjust="spacingAndGlyphs" textLength="299" x="26.5" y="364.5">friend ostream&amp; operator &lt;&lt; (ostream&amp;, const Circle&amp;)</text><polygon fill="#FFFF44" points="17.5,369.7979,21.5,373.7979,17.5,377.7979,13.5,373.7979" style="stroke: #B38D22; stroke-width: 1.0;"/><text fill="#000000" font-family="sans-serif" font-size="11" lengthAdjust="spacingAndGlyphs" textLength="227" x="26.5" y="377.4551">bool equals (const Shape&amp;) const override</text><polygon fill="#FFFF44" points="17.5,382.7529,21.5,386.7529,17.5,390.7529,13.5,386.7529" style="stroke: #B38D22; stroke-width: 1.0;"/><text fill="#000000" font-family="sans-serif" font-size="11" lengthAdjust="spacingAndGlyphs" textLength="182" x="26.5" y="390.4102">istream&amp; read (istream&amp;) override</text><polygon fill="#FFFF44" points="17.5,395.708,21.5,399.708,17.5,403.708,13.5,399.708" style="stroke: #B38D22; stroke-width: 1.0;"/><text fill="#000000" font-family="sans-serif" font-size="11" lengthAdjust="spacingAndGlyphs" textLength="225" x="26.5" y="403.3652">ostream&amp; write (ostream&amp;) const override</text><ellipse cx="17.5" cy="413.6631" fill="#84BE84" rx="3" ry="3" style="stroke: #038048; stroke-width: 1.0;"/><text fill="#000000" font-family="sans-serif" font-size="11" lengthAdjust="spacingAndGlyphs" textLength="123" x="26.5" y="416.3203">Circle (int x, int y, int r)</text><ellipse cx="17.5" cy="426.6182" fill="#84BE84" rx="3" ry="3" style="stroke: #038048; stroke-width: 1.0;"/><text fill="#000000" font-family="sans-serif" font-size="11" lengthAdjust="spacingAndGlyphs" textLength="155" x="26.5" y="429.2754">double area () const override</text><ellipse cx="17.5" cy="439.5732" fill="#84BE84" rx="3" ry="3" style="stroke: #038048; stroke-width: 1.0;"/><text fill="#000000" font-family="sans-serif" font-size="11" lengthAdjust="spacingAndGlyphs" textLength="95" x="26.5" y="442.2305">int radius () const</text><!--link Shape to Circle--><path d="M169,231.1814 C169,244.5408 169,257.9545 169,270.8136 " fill="none" id="Shape-Circle" style="stroke: #A80036; stroke-width: 1.0;"/><polygon fill="none" points="162.0001,231.0269,169,211.0268,176.0001,231.0268,162.0001,231.0269" style="stroke: #A80036; stroke-width: 1.0;"/><!--
@startuml
Shape <|- - Circle

class Shape {
    - int x
    - int y
    + friend bool operator == (const Shape&, const Shape&)
    + friend istream& operator >> (istream&, Shape&)
    + friend ostream& operator << (ostream&, const Shape&)
    # virtual bool equals (const Shape&) const
    # virtual istream& read (istream&)
    # virtual ostream& write const (ostream&)
    + Shape (int x, int y)
    + virtual ~Shape ()
    + virtual double area () const
    + void move (int x, int y)
    }

class Circle {
    - int r
    + friend bool operator == (const Circle&, const Circle&)
    + friend istream& operator >> (istream&, Circle&)
    + friend ostream& operator << (ostream&, const Circle&)
    # bool equals (const Shape&) const override
    # istream& read (istream&) override
    # ostream& write (ostream&) const override
    + Circle (int x, int y, int r)
    + double area () const override
    + int radius () const
    }

@enduml

PlantUML version 1.2018.12(Sun Oct 21 05:15:15 CDT 2018)
(GPL source distribution)
Java Runtime: Java(TM) SE Runtime Environment
JVM: Java HotSpot(TM) 64-Bit Server VM
Java Version: 10.0.1+10
Operating System: Mac OS X
OS Version: 10.13.6
Default Encoding: UTF-8
Language: en
Country: US
--></g></svg>