<?xml version="1.0" encoding="UTF-8" standalone="no"?><svg xmlns="http://www.w3.org/2000/svg" xmlns:xlink="http://www.w3.org/1999/xlink" contentScriptType="application/ecmascript" contentStyleType="text/css" height="485px" preserveAspectRatio="none" style="width:343px;height:485px;" version="1.1" viewBox="0 0 343 485" width="343px" zoomAndPan="magnify"><defs><filter height="300%" id="fl9e4eh5zjdap" width="300%" x="-1" y="-1"><feGaussianBlur result="blurOut" stdDeviation="2.0"/><feColorMatrix in="blurOut" result="blurOut2" type="matrix" values="0 0 0 0 0 0 0 0 0 0 0 0 0 0 0 0 0 0 .4 0"/><feOffset dx="4.0" dy="4.0" in="blurOut2" result="blurOut3"/><feBlend in="SourceGraphic" in2="blurOut3" mode="normal"/></filter></defs><g><!--class AbstractShape--><rect fill="#FEFECE" filter="url(#fl9e4eh5zjdap)" height="216.416" id="AbstractShape" style="stroke: #A80036; stroke-width: 1.5;" width="326" x="6" y="8"/><ellipse cx="123.25" cy="24" fill="#ADD1B2" rx="11" ry="11" style="stroke: #A80036; stroke-width: 1.0;"/><path d="M126.2231,29.6431 Q125.6421,29.9419 125.0029,30.0913 Q124.3638,30.2407 123.6582,30.2407 Q121.1514,30.2407 119.8315,28.5889 Q118.5117,26.937 118.5117,23.8159 Q118.5117,20.6865 119.8315,19.0347 Q121.1514,17.3828 123.6582,17.3828 Q124.3638,17.3828 125.0112,17.5322 Q125.6587,17.6816 126.2231,17.9805 L126.2231,20.7031 Q125.5923,20.1221 124.9988,19.8523 Q124.4053,19.5825 123.7744,19.5825 Q122.4297,19.5825 121.7449,20.6492 Q121.0601,21.7158 121.0601,23.8159 Q121.0601,25.9077 121.7449,26.9744 Q122.4297,28.041 123.7744,28.041 Q124.4053,28.041 124.9988,27.7712 Q125.5923,27.5015 126.2231,26.9204 Z "/><text fill="#000000" font-family="sans-serif" font-size="12" lengthAdjust="spacingAndGlyphs" textLength="83" x="143.75" y="28.5352">AbstractShape</text><line style="stroke: #A80036; stroke-width: 1.5;" x1="7" x2="331" y1="40" y2="40"/><rect fill="none" height="6" style="stroke: #C82930; stroke-width: 1.0;" width="6" x="14" y="48.9775"/><text fill="#000000" font-family="sans-serif" font-size="11" lengthAdjust="spacingAndGlyphs" textLength="24" x="26" y="54.6348">int x</text><rect fill="none" height="6" style="stroke: #C82930; stroke-width: 1.0;" width="6" x="14" y="61.9326"/><text fill="#000000" font-family="sans-serif" font-size="11" lengthAdjust="spacingAndGlyphs" textLength="23" x="26" y="67.5898">int y</text><line style="stroke: #A80036; stroke-width: 1.5;" x1="7" x2="331" y1="73.9102" y2="73.9102"/><ellipse cx="17" cy="85.8877" fill="#84BE84" rx="3" ry="3" style="stroke: #038048; stroke-width: 1.0;"/><text fill="#000000" font-family="sans-serif" font-size="11" lengthAdjust="spacingAndGlyphs" textLength="293" x="26" y="88.5449">friend bool operator == (const Shape&amp;, const Shape&amp;)</text><ellipse cx="17" cy="98.8428" fill="#84BE84" rx="3" ry="3" style="stroke: #038048; stroke-width: 1.0;"/><text fill="#000000" font-family="sans-serif" font-size="11" lengthAdjust="spacingAndGlyphs" textLength="259" x="26" y="101.5">friend istream&amp; operator &gt;&gt; (istream&amp;, Shape&amp;)</text><ellipse cx="17" cy="111.7979" fill="#84BE84" rx="3" ry="3" style="stroke: #038048; stroke-width: 1.0;"/><text fill="#000000" font-family="sans-serif" font-size="11" lengthAdjust="spacingAndGlyphs" textLength="300" x="26" y="114.4551">friend ostream&amp; operator &lt;&lt; (ostream&amp;, const Shape&amp;)</text><polygon fill="#FFFF44" points="17,119.7529,21,123.7529,17,127.7529,13,123.7529" style="stroke: #B38D22; stroke-width: 1.0;"/><text fill="#000000" font-family="sans-serif" font-size="11" font-style="italic" lengthAdjust="spacingAndGlyphs" textLength="216" x="26" y="127.4102">virtual bool equals (const Shape&amp;) const</text><polygon fill="#FFFF44" points="17,132.708,21,136.708,17,140.708,13,136.708" style="stroke: #B38D22; stroke-width: 1.0;"/><text fill="#000000" font-family="sans-serif" font-size="11" font-style="italic" lengthAdjust="spacingAndGlyphs" textLength="171" x="26" y="140.3652">virtual istream&amp; read (istream&amp;)</text><polygon fill="#FFFF44" points="17,145.6631,21,149.6631,17,153.6631,13,149.6631" style="stroke: #B38D22; stroke-width: 1.0;"/><text fill="#000000" font-family="sans-serif" font-size="11" font-style="italic" lengthAdjust="spacingAndGlyphs" textLength="214" x="26" y="153.3203">virtual ostream&amp; write const (ostream&amp;)</text><ellipse cx="17" cy="163.6182" fill="#84BE84" rx="3" ry="3" style="stroke: #038048; stroke-width: 1.0;"/><text fill="#000000" font-family="sans-serif" font-size="11" lengthAdjust="spacingAndGlyphs" textLength="142" x="26" y="166.2754">AbstractShape (int x, int y)</text><ellipse cx="17" cy="176.5732" fill="#84BE84" rx="3" ry="3" style="stroke: #038048; stroke-width: 1.0;"/><text fill="#000000" font-family="sans-serif" font-size="11" lengthAdjust="spacingAndGlyphs" textLength="133" x="26" y="179.2305">virtual ~AbstractShape ()</text><ellipse cx="17" cy="189.5283" fill="#84BE84" rx="3" ry="3" style="stroke: #038048; stroke-width: 1.0;"/><text fill="#000000" font-family="sans-serif" font-size="11" font-style="italic" lengthAdjust="spacingAndGlyphs" textLength="144" x="26" y="192.1855">virtual double area () const</text><ellipse cx="17" cy="202.4834" fill="#84BE84" rx="3" ry="3" style="stroke: #038048; stroke-width: 1.0;"/><text fill="#000000" font-family="sans-serif" font-size="11" font-style="italic" lengthAdjust="spacingAndGlyphs" textLength="196" x="26" y="205.1406">virtual AbstractShape* clone () const</text><ellipse cx="17" cy="215.4385" fill="#84BE84" rx="3" ry="3" style="stroke: #038048; stroke-width: 1.0;"/><text fill="#000000" font-family="sans-serif" font-size="11" lengthAdjust="spacingAndGlyphs" textLength="119" x="26" y="218.0957">void move (int x, int y)</text><!--class Circle--><rect fill="#FEFECE" filter="url(#fl9e4eh5zjdap)" height="190.5059" id="Circle" style="stroke: #A80036; stroke-width: 1.5;" width="325" x="6.5" y="284"/><ellipse cx="148.75" cy="300" fill="#ADD1B2" rx="11" ry="11" style="stroke: #A80036; stroke-width: 1.0;"/><path d="M151.7231,305.6431 Q151.1421,305.9419 150.5029,306.0913 Q149.8638,306.2407 149.1582,306.2407 Q146.6514,306.2407 145.3315,304.5889 Q144.0117,302.937 144.0117,299.8159 Q144.0117,296.6865 145.3315,295.0347 Q146.6514,293.3828 149.1582,293.3828 Q149.8638,293.3828 150.5112,293.5322 Q151.1587,293.6816 151.7231,293.9805 L151.7231,296.7031 Q151.0923,296.1221 150.4988,295.8523 Q149.9053,295.5825 149.2744,295.5825 Q147.9297,295.5825 147.2449,296.6492 Q146.5601,297.7158 146.5601,299.8159 Q146.5601,301.9077 147.2449,302.9744 Q147.9297,304.041 149.2744,304.041 Q149.9053,304.041 150.4988,303.7712 Q151.0923,303.5015 151.7231,302.9204 Z "/><text fill="#000000" font-family="sans-serif" font-size="12" lengthAdjust="spacingAndGlyphs" textLength="32" x="169.25" y="304.5352">Circle</text><line style="stroke: #A80036; stroke-width: 1.5;" x1="7.5" x2="330.5" y1="316" y2="316"/><rect fill="none" height="6" style="stroke: #C82930; stroke-width: 1.0;" width="6" x="14.5" y="324.9775"/><text fill="#000000" font-family="sans-serif" font-size="11" lengthAdjust="spacingAndGlyphs" textLength="22" x="26.5" y="330.6348">int r</text><line style="stroke: #A80036; stroke-width: 1.5;" x1="7.5" x2="330.5" y1="336.9551" y2="336.9551"/><ellipse cx="17.5" cy="348.9326" fill="#84BE84" rx="3" ry="3" style="stroke: #038048; stroke-width: 1.0;"/><text fill="#000000" font-family="sans-serif" font-size="11" lengthAdjust="spacingAndGlyphs" textLength="291" x="26.5" y="351.5898">friend bool operator == (const Circle&amp;, const Circle&amp;)</text><ellipse cx="17.5" cy="361.8877" fill="#84BE84" rx="3" ry="3" style="stroke: #038048; stroke-width: 1.0;"/><text fill="#000000" font-family="sans-serif" font-size="11" lengthAdjust="spacingAndGlyphs" textLength="258" x="26.5" y="364.5449">friend istream&amp; operator &gt;&gt; (istream&amp;, Circle&amp;)</text><ellipse cx="17.5" cy="374.8428" fill="#84BE84" rx="3" ry="3" style="stroke: #038048; stroke-width: 1.0;"/><text fill="#000000" font-family="sans-serif" font-size="11" lengthAdjust="spacingAndGlyphs" textLength="299" x="26.5" y="377.5">friend ostream&amp; operator &lt;&lt; (ostream&amp;, const Circle&amp;)</text><polygon fill="#FFFF44" points="17.5,382.7979,21.5,386.7979,17.5,390.7979,13.5,386.7979" style="stroke: #B38D22; stroke-width: 1.0;"/><text fill="#000000" font-family="sans-serif" font-size="11" lengthAdjust="spacingAndGlyphs" textLength="227" x="26.5" y="390.4551">bool equals (const Shape&amp;) const override</text><polygon fill="#FFFF44" points="17.5,395.7529,21.5,399.7529,17.5,403.7529,13.5,399.7529" style="stroke: #B38D22; stroke-width: 1.0;"/><text fill="#000000" font-family="sans-serif" font-size="11" lengthAdjust="spacingAndGlyphs" textLength="182" x="26.5" y="403.4102">istream&amp; read (istream&amp;) override</text><polygon fill="#FFFF44" points="17.5,408.708,21.5,412.708,17.5,416.708,13.5,412.708" style="stroke: #B38D22; stroke-width: 1.0;"/><text fill="#000000" font-family="sans-serif" font-size="11" lengthAdjust="spacingAndGlyphs" textLength="225" x="26.5" y="416.3652">ostream&amp; write (ostream&amp;) const override</text><ellipse cx="17.5" cy="426.6631" fill="#84BE84" rx="3" ry="3" style="stroke: #038048; stroke-width: 1.0;"/><text fill="#000000" font-family="sans-serif" font-size="11" lengthAdjust="spacingAndGlyphs" textLength="123" x="26.5" y="429.3203">Circle (int x, int y, int r)</text><ellipse cx="17.5" cy="439.6182" fill="#84BE84" rx="3" ry="3" style="stroke: #038048; stroke-width: 1.0;"/><text fill="#000000" font-family="sans-serif" font-size="11" lengthAdjust="spacingAndGlyphs" textLength="155" x="26.5" y="442.2754">double area () const override</text><ellipse cx="17.5" cy="452.5732" fill="#84BE84" rx="3" ry="3" style="stroke: #038048; stroke-width: 1.0;"/><text fill="#000000" font-family="sans-serif" font-size="11" lengthAdjust="spacingAndGlyphs" textLength="160" x="26.5" y="455.2305">Circle* clone () const override</text><ellipse cx="17.5" cy="465.5283" fill="#84BE84" rx="3" ry="3" style="stroke: #038048; stroke-width: 1.0;"/><text fill="#000000" font-family="sans-serif" font-size="11" lengthAdjust="spacingAndGlyphs" textLength="95" x="26.5" y="468.1855">int radius () const</text><!--link AbstractShape to Circle--><path d="M169,244.3763 C169,257.6634 169,270.9964 169,283.8341 " fill="none" id="AbstractShape-Circle" style="stroke: #A80036; stroke-width: 1.0;"/><polygon fill="none" points="162.0001,244.3163,169,224.3162,176.0001,244.3162,162.0001,244.3163" style="stroke: #A80036; stroke-width: 1.0;"/><!--
@startuml
AbstractShape <|- - Circle

class AbstractShape {
    - int x
    - int y
    + friend bool operator == (const Shape&, const Shape&)
    + friend istream& operator >> (istream&, Shape&)
    + friend ostream& operator << (ostream&, const Shape&)
    # {abstract} virtual bool equals (const Shape&) const
    # {abstract} virtual istream& read (istream&)
    # {abstract} virtual ostream& write const (ostream&)
    + AbstractShape (int x, int y)
    + virtual ~AbstractShape ()
    + {abstract} virtual double area () const
    + {abstract} virtual AbstractShape* clone () const
    + void move (int x, int y)
    }

class Circle {
    - int r
    + friend bool operator == (const Circle&, const Circle&)
    + friend istream& operator >> (istream&, Circle&)
    + friend ostream& operator << (ostream&, const Circle&)
    # bool equals (const Shape&) const override
    # istream& read (istream&) override
    # ostream& write (ostream&) const override
    + Circle (int x, int y, int r)
    + double area () const override
    + Circle* clone () const override
    + int radius () const
    }

@enduml

PlantUML version 1.2018.12(Sun Oct 21 05:15:15 CDT 2018)
(GPL source distribution)
Java Runtime: Java(TM) SE Runtime Environment
JVM: Java HotSpot(TM) 64-Bit Server VM
Java Version: 10.0.1+10
Operating System: Mac OS X
OS Version: 10.13.6
Default Encoding: UTF-8
Language: en
Country: US
--></g></svg>